HIERARCHY
ROOT Hips
{
  OFFSET 0.000000 0.000000 0.000000
  CHANNELS 6 Xposition Yposition Zposition Zrotation Xrotation Yrotation
  JOINT Spine
  {
    OFFSET 0.000000 4.465170 -0.102243
    CHANNELS 3 Zrotation Xrotation Yrotation
    JOINT Spine1
    {
      OFFSET 0.000000 4.462120 -0.182402
      CHANNELS 3 Zrotation Xrotation Yrotation
      JOINT Spine2
      {
        OFFSET 0.000000 4.379370 -0.881002
        CHANNELS 3 Zrotation Xrotation Yrotation
        JOINT Spine3
        {
          OFFSET 0.000000 4.682860 0.214145
          CHANNELS 3 Zrotation Xrotation Yrotation
          JOINT Neck
          {
            OFFSET 0.000000 1.769640 0.824538
            CHANNELS 3 Zrotation Xrotation Yrotation
            JOINT Head
            {
              OFFSET 0.000000 1.696100 0.931451
              CHANNELS 3 Zrotation Xrotation Yrotation
            }
          }
          JOINT LeftShoulder
          {
            OFFSET 1.193810 -0.758808 -0.027676
            CHANNELS 3 Zrotation Xrotation Yrotation
            JOINT LeftArm
            {
              OFFSET 5.187790 -0.000017 0.000000
              CHANNELS 3 Zrotation Xrotation Yrotation
              JOINT LeftForeArm
              {
                OFFSET 12.736400 -0.000036 0.000016
                CHANNELS 3 Zrotation Xrotation Yrotation
                JOINT LeftHand
                {
                  OFFSET 9.214520 -0.000024 0.000012
                  CHANNELS 3 Zrotation Xrotation Yrotation
                }
              }
            }
          }
          JOINT RightShoulder
          {
            OFFSET -1.193810 -0.758806 -0.027672
            CHANNELS 3 Zrotation Xrotation Yrotation
            JOINT RightArm
            {
              OFFSET -5.187790 0.000013 0.000000
              CHANNELS 3 Zrotation Xrotation Yrotation
              JOINT RightForeArm
              {
                OFFSET -12.736400 0.000033 -0.000016
                CHANNELS 3 Zrotation Xrotation Yrotation
                JOINT RightHand
                {
                  OFFSET -9.214520 0.000024 -0.000011
                  CHANNELS 3 Zrotation Xrotation Yrotation
                }
              }
            }
          }
        }
      }
    }
  }
  JOINT LeftUpLeg
  {
    OFFSET 4.065250 -3.907320 0.417113
    CHANNELS 3 Zrotation Xrotation Yrotation
    JOINT LeftLeg
    {
      OFFSET 0.000225 -18.482100 0.003669
      CHANNELS 3 Zrotation Xrotation Yrotation
      JOINT LeftFoot
      {
        OFFSET -0.001724 -15.289800 -0.026295
        CHANNELS 3 Zrotation Xrotation Yrotation
        JOINT LeftToeBase
        {
          OFFSET 0.367432 -3.191310 5.542870
          CHANNELS 3 Zrotation Xrotation Yrotation
          JOINT LeftToe_End
          {
            OFFSET 0.087508 0.048489 1.367580
            CHANNELS 3 Zrotation Xrotation Yrotation
          }
        }
      }
    }
  }
  JOINT RightUpLeg
  {
    OFFSET -4.065260 -3.907310 0.417124
    CHANNELS 3 Zrotation Xrotation Yrotation
    JOINT RightLeg
    {
      OFFSET -0.000294 -18.482100 0.004403
      CHANNELS 3 Zrotation Xrotation Yrotation
      JOINT RightFoot
      {
        OFFSET 0.001597 -15.289800 -0.025693
        CHANNELS 3 Zrotation Xrotation Yrotation
        JOINT RightToeBase
        {
          OFFSET -0.354204 -3.191090 5.543860
          CHANNELS 3 Zrotation Xrotation Yrotation
          JOINT RightToe_End
          {
            OFFSET -0.084240 0.048543 1.367780
            CHANNELS 3 Zrotation Xrotation Yrotation
          }
        }
      }
    }
  }
}
MOTION
Frames: 6
Frame Time:	0.033333
-1.583013 39.823448 71.376656 -2.705215 1.572464 -8.987891 3.207764 -0.654005 2.934585 1.177076 1.815886 1.710897 0.642358 2.286088 1.820659 1.071153 5.695004 3.205585 -2.952412 -4.164987 -7.459027 1.047128 -18.902117 -7.842596 -11.666302 2.249170 -1.413355 -62.696262 11.526111 4.220023 0.000000 0.000000 -5.688761 -11.200774 -4.355702 1.361624 1.616860 2.273875 8.974685 56.369545 14.700469 12.661211 -0.000000 0.000000 39.417728 -0.974780 8.799153 2.665125 6.878810 -31.777554 1.886695 0.000081 28.959692 0.054778 -3.362350 -7.885190 8.267231 -0.000000 0.000000 -0.000000 -0.000000 0.000000 -0.000000 -2.561415 22.117006 -3.094980 0.000031 13.276038 0.001733 -0.100144 -15.069456 16.087894 -0.000000 0.000000 -0.000000 -0.000000 0.000000 -0.000000
-1.347780 40.057301 73.172600 -1.495111 1.309482 -8.479356 2.600409 -0.608552 2.847487 0.836797 1.824293 1.656905 0.292461 2.253359 1.717988 0.339623 5.565920 3.078245 -2.728993 -4.205384 -7.604333 1.475254 -18.865765 -7.921868 -11.951981 2.270077 -1.631301 -61.491222 11.593610 2.819871 0.000000 0.000000 -4.720828 -10.666196 -4.065394 2.122521 1.992585 2.371401 8.906296 58.167576 15.393776 11.159305 -0.000000 0.000000 37.192410 -2.056947 7.596734 2.796592 4.106769 -29.524860 -0.528205 0.000066 29.531275 0.045104 -4.463022 -7.006880 9.754563 -0.000000 0.000000 -0.000000 -0.000000 0.000000 -0.000000 -4.729569 17.125711 -2.838736 0.000119 26.517860 0.053471 -1.757204 -10.052878 15.272938 -0.000000 0.000000 -0.000000 -0.000000 0.000000 -0.000000
-1.092874 40.328831 74.999573 -0.495305 1.115821 -8.118886 2.373048 -0.676337 2.691245 0.571298 1.795230 1.591337 0.007060 2.225440 1.609201 -0.333417 5.537332 2.935020 -2.526210 -4.165133 -7.689677 1.616026 -18.786404 -7.970942 -11.800710 2.362715 -2.040683 -60.945862 11.849282 1.032939 0.000000 0.000000 -4.154545 -9.313102 -4.587828 2.477397 2.216574 2.421742 8.951203 59.659351 16.748356 9.810102 -0.000000 0.000000 34.639412 -1.309716 6.180857 1.501906 2.140297 -26.800659 -0.219858 -0.000032 29.979176 -0.055307 -3.816721 -8.268472 8.724810 -0.000000 0.000000 -0.000000 -0.000000 0.000000 -0.000000 -6.864543 10.392508 -3.079452 0.000429 40.049553 0.164573 -3.928668 1.382908 15.479420 -0.000000 0.000000 -0.000000 -0.000000 0.000000 -0.000000
-0.836360 40.628258 76.750237 0.192222 0.830519 -7.611219 2.467004 -0.756147 2.333056 0.396042 1.764955 1.466314 -0.198600 2.207338 1.451829 -0.942512 5.560013 2.692891 -2.468043 -3.829228 -7.539245 1.734857 -18.869282 -7.821043 -11.549030 2.478843 -2.769309 -60.488201 12.616945 -0.920142 0.000000 0.000000 -4.439456 -8.244324 -6.514238 2.521500 2.643323 2.464215 8.820563 60.879280 18.173767 8.750281 -0.000000 0.000000 31.719969 1.378893 5.874767 -0.542836 0.538790 -23.567057 0.402242 -0.000332 29.553520 -0.236918 -2.865511 -9.846299 7.428689 -0.000000 0.000000 -0.000000 -0.000000 0.000000 -0.000000 -8.054714 4.378349 -3.456207 0.000595 51.993950 0.198322 -5.443169 10.066250 13.232040 -0.000000 0.000000 -0.000000 -0.000000 0.000000 -0.000000
-0.621259 40.907600 78.419098 0.774040 0.448292 -7.064647 2.484653 -0.766044 1.908844 0.251082 1.774584 1.281303 -0.338915 2.240293 1.243173 -1.375210 5.679567 2.345466 -2.495223 -3.178005 -7.200698 1.632852 -18.891602 -7.524542 -11.061715 2.609761 -3.815065 -60.179989 13.928115 -2.968959 0.000000 0.000000 -5.331028 -7.987184 -8.691804 1.866708 3.227018 2.481176 8.496614 61.718914 19.564001 7.966029 -0.000000 0.000000 28.558508 5.917632 7.791249 -2.801471 -0.750886 -19.896347 1.648435 -0.000514 28.258774 -0.355759 -1.672821 -11.196101 5.839999 -0.000000 0.000000 -0.000000 -0.000000 0.000000 -0.000000 -8.815336 -1.187745 -3.567512 0.000883 61.972271 0.278011 0.286918 14.048978 4.954021 -0.000000 0.000000 -0.000000 -0.000000 0.000000 -0.000000
-0.441914 41.153522 79.992455 1.027814 -0.010256 -6.184503 2.436154 -0.636796 1.357563 0.183951 1.845693 0.980853 -0.393700 2.318757 0.937971 -1.660481 5.827741 1.803843 -2.172214 -2.607832 -6.812300 0.953864 -18.561859 -7.154797 -10.529839 2.766086 -4.954581 -59.634266 16.371981 -5.311864 0.000000 0.000000 -6.351880 -7.598613 -8.557097 0.663096 4.135500 2.510047 7.917948 62.167450 20.500431 6.981050 -0.000000 0.000000 26.067621 10.098787 10.629444 -4.512246 -1.717092 -15.921592 2.365074 -0.000438 26.256750 -0.343687 -0.757210 -12.286420 4.422008 -0.000000 0.000000 -0.000000 -0.000000 0.000000 -0.000000 -8.486782 -6.038436 -3.981168 0.000799 69.227112 0.233851 1.955054 9.719831 -3.897268 -0.000000 0.000000 -0.000000 -0.000000 0.000000 -0.000000
